
<svg
  xmlns="http://www.w3.org/2000/svg"
  xmlns:xlink="http://www.w3.org/1999/xlink"
  version="1.1"
  width="3155.1627721715545"
  height="721.5068905977284"
  viewBox="0 0 3155.1627721715545 721.5068905977284">
    <rect
      fill="#283149"
      width="3155.1627721715545"
      height="721.5068905977284"/>
			<g
        transform="scale(7.758138608577725) translate(10, 10)">
				<defs
          id="SvgjsDefs15963">
        </defs>
        <g
          id="SvgjsG15964"
          featureKey="symbolGroupContainer"
          transform="matrix(1,0,0,1,0,0)"
          fill="#19bfb7">
          <path
            xmlns="http://www.w3.org/2000/svg"
            fill-rule="nonzero"
            d="             M0,0             H80             V73             H0,0             z             M4,4             v65             h72             v-65             z     "></path></g><g id="SvgjsG15965" featureKey="symbolFeature-0" transform="matrix(0.5898019671440125,0,0,0.5898019671440125,10.10198414298765,6.922412245417554)" fill="#19bfb7"><g xmlns="http://www.w3.org/2000/svg" transform="translate(0,-952.36218)"><path d="m 60.7828,964.36215 27.1809,0.8834 -27.1809,25.9958 z m -1.9745,1.4513 0,26.7845 -25.2681,0 c 8.6166,-8.7334 16.8796,-17.8103 25.2681,-26.7845 z m 27.7053,3.628 3.4864,1.1989 -12.5877,7.4768 z m -68.1835,2.9656 5.5226,0 12.8654,14.0705 -5.9854,6.1204 -12.4026,0 c 9e-4,-6.7347 0,-13.4597 0,-20.1909 z m -1.9746,1.2304 0,5.8364 -6.3555,0 z m 3.363,20.9796 38.627,0 -10.7675,29.43465 z m 39.0898,4.54286 0,41.20229 -12.5878,-6.8775 c 4.1972,-11.443 8.3886,-22.879 12.5878,-34.32479 z" style="text-indent:0;text-transform:none;direction:ltr;block-progression:tb;baseline-shift:baseline;color:;enable-background:accumulate;" fill="#19BFB7" fill-opacity="1" stroke="none" marker="none" visibility="visible" display="inline" overflow="visible"></path></g></g><g id="SvgjsG15966" featureKey="nameLeftFeature-0" transform="matrix(1.7173486948013306,0,0,1.7173486948013306,97.9391824786029,15.03150299076158)" fill="#ffffff"><path d="M8.7 16.259999999999998 l1.1 -1.9 q0.6 0.04 1.05 0.2 t0.99 0.52 q0.38 0.24 1.34 0.96 l0.38 0.28 q0.72 -0.78 1.12 -1.74 q0.42 -1.02 0.42 -2.14 q0 -1.6 -0.82 -2.9 q-0.78 -1.26 -2.13 -1.98 t-2.93 -0.72 q-1.64 0 -2.99 0.74 t-2.11 2.02 q-0.78 1.34 -0.78 2.98 q0 1.56 0.84 2.88 q0.8 1.24 2.15 1.97 t2.91 0.73 q1.28 0 2.44 -0.52 q-1.02 -0.76 -1.54 -1.02 q-0.64 -0.32 -1.44 -0.36 z M17.26 12.559999999999999 q0 1.42 -0.52 2.74 q-0.48 1.24 -1.4 2.3 q1.24 0.76 2.24 0.84 l-1.1 1.9 q-0.78 -0.08 -1.52 -0.44 q-0.56 -0.26 -1.34 -0.82 q-0.96 0.62 -2.08 0.94 t-2.32 0.32 q-2.22 0 -4.08 -1.08 q-1.82 -1.04 -2.86 -2.86 q-1.08 -1.86 -1.08 -4.08 q0 -2.14 1.14 -3.94 q1.08 -1.72 2.93 -2.73 t3.97 -1.01 q2.18 0 4.04 1.06 q1.82 1.04 2.88 2.82 q1.1 1.86 1.1 4.04 z M23.14 7.279999999999999 l0 4.56 q0.62 -0.36 1.4 -0.5 q0.58 -0.1 1.44 -0.1 l2.56 0 q1.04 0 1.63 -0.52 t0.59 -1.54 q0 -1.9 -2.22 -1.9 l-5.4 0 z M23.14 14.059999999999999 l0 3.76 l5.62 0 q0.66 0 1.26 -0.24 q0.66 -0.24 1.04 -0.7 q0.44 -0.54 0.44 -1.24 q0 -1.2 -0.94 -1.74 q-0.74 -0.44 -2.02 -0.44 l-2.56 0 q-1.72 0 -2.84 0.6 z M33.660000000000004 15.92 q0 1.4 -0.78 2.38 q-0.68 0.86 -1.92 1.3 q-1.1 0.4 -2.42 0.4 l-7.56 0 l0 -14.92 l7.56 0 q1.28 0 2.27 0.48 t1.55 1.38 q0.58 0.94 0.58 2.22 q0 0.98 -0.35 1.75 t-0.99 1.19 q0.86 0.4 1.42 1.32 q0.64 1.06 0.64 2.5 z M39.400000000000006 20 l-2.14 0 l0 -14.92 l2.14 0 l0 14.92 z M54.900000000000006 7.279999999999999 l-5.26 0 l0 12.72 l-2.12 0 l0 -12.72 l-5.32 0 l0 -2.2 l12.7 0 l0 2.2 z M59.88 14.02 l0 3.8 l9.2 0 l0 2.18 l-11.38 0 l0 -14.92 l10.5 0 l0 2.2 l-8.32 0 l0 4.52 q0.62 -0.36 1.38 -0.48 q0.56 -0.1 1.44 -0.1 l3.26 0 l0 2.22 l-3.26 0 q-0.82 0 -1.44 0.1 q-0.76 0.14 -1.38 0.48 z"></path></g><g id="SvgjsG15967" featureKey="nameRightFeature-0" transform="matrix(1.9342432022094727,0,0,1.9342432022094727,226.96818049994602,10.771696214635355)" fill="#ffffff"><path d="M17.084728813559323 17.729 c0.11864 0.08458 0.084746 0.22017 -0.067797 0.37271 c-1.2544 1.2542 -2.8814 2.0168 -4.8983 2.0168 c-3.8136 0 -6.9322 -3.0168 -6.9322 -6.8812 c0 -3.8475 3.1186 -6.9153 6.9322 -6.9153 c1.9322 0 3.661 0.74576 4.9322 2.0169 c0.15254 0.15254 0.16949 0.27119 0.067797 0.35593 l-0.71186 0.59322 c-0.11864 0.10169 -0.22034 0.10169 -0.33898 -0.016949 c-0.71186 -0.74559 -2.1186 -1.6608 -3.8475 -1.6608 c-3.678 0 -5.7119 2.9831 -5.7119 5.6271 c0 2.678 2.0339 5.5932 5.7119 5.5932 c1.7288 0 3.0508 -0.88136 3.7966 -1.6271 c0.13559 -0.13559 0.23729 -0.16949 0.35593 -0.067797 z M31.86461016949152 19.77983 c0.067797 0.13559 0.034229 0.22017 -0.11831 0.22017 l-1.0339 0 c-0.11864 0 -0.18644 -0.050847 -0.23729 -0.15254 l-1.1864 -2.5254 l-8.1864 0 l-1.1864 2.5254 c-0.050847 0.10169 -0.11848 0.15254 -0.22034 0.15254 l-1.0678 0 c-0.11864 0 -0.18644 -0.08458 -0.11864 -0.22017 l6.3558 -13.271 c0.067797 -0.11864 0.11864 -0.15254 0.20322 -0.15254 l0.23745 0 c0.084746 0 0.15254 0.033898 0.20339 0.15254 z M21.67811016949152 16.1019 l7.0339 0 l-3.5254 -7.4576 z M38.966067796610176 6.441000000000001 c3.0846 0 4.6437 2.4407 4.6437 4.4576 c0 2.0847 -1.5593 4.4746 -4.6439 4.4746 l-3.7966 0 l0 4.3898 c0 0.15254 -0.067797 0.23712 -0.20339 0.23712 l-0.91525 0 c-0.15238 0 -0.22017 -0.08458 -0.22017 -0.23712 l0 -13.102 c0 -0.15254 0.067797 -0.22034 0.22017 -0.22034 l4.9154 0 z M38.915067796610174 14.1019 c2.1864 0 3.3559 -1.6102 3.3559 -3.2034 s-1.1695 -3.1695 -3.3559 -3.1695 l-3.7456 0 l0 6.3729 l3.7456 0 z M46.559344067796616 6.441000000000001 l-0.86441 0 c-0.15254 0 -0.22034 0.067797 -0.22034 0.22034 l0 13.119 c0 0.13559 0.067797 0.22017 0.22034 0.22017 l0.88136 0 c0.11864 0 0.20339 -0.08458 0.20339 -0.22017 l0 -13.119 c0 -0.15254 -0.084746 -0.22034 -0.22034 -0.22034 z M59.22059322033899 6.441000000000001 c0.15254 0 0.22051 0.067797 0.22051 0.22034 l0 0.84746 c0 0.13559 -0.067797 0.22034 -0.22034 0.22034 l-4.3729 0 l0 12.034 c0 0.15254 -0.067797 0.23712 -0.20339 0.23712 l-0.67797 0 c-0.30508 0 -0.45763 -0.18644 -0.45763 -0.47441 l0 -11.797 l-4.3729 0 c-0.15254 0 -0.23729 -0.084746 -0.23729 -0.22034 l0 -0.83051 c0 -0.16949 0.084746 -0.23729 0.23729 -0.23729 l10.085 0 z M72.40698305084747 19.77983 c0.067797 0.13559 0.034229 0.22017 -0.11831 0.22017 l-1.0339 0 c-0.11864 0 -0.18644 -0.050847 -0.23729 -0.15254 l-1.1864 -2.5254 l-8.1864 0 l-1.1864 2.5254 c-0.050847 0.10169 -0.11848 0.15254 -0.22034 0.15254 l-1.0678 0 c-0.11864 0 -0.18644 -0.08458 -0.11864 -0.22017 l6.3558 -13.271 c0.067797 -0.11864 0.11864 -0.15254 0.20322 -0.15254 l0.23745 0 c0.084746 0 0.15254 0.033898 0.20339 0.15254 z M62.22048305084747 16.1019 l7.0339 0 l-3.5254 -7.4576 z M82.37284406779662 18.712 c0.13559 0 0.20339 0.084912 0.20339 0.23729 l0 0.83051 c0 0.15254 -0.067797 0.22017 -0.20339 0.22017 l-7.9492 0 c-0.15254 0 -0.20339 -0.10153 -0.20339 -0.22017 l0 -13.119 c0 -0.15254 0.067797 -0.22034 0.22034 -0.22034 l0.89831 0 c0.13559 0 0.22034 0.067797 0.22034 0.22034 l0 12.051 l6.8136 0 z">
          </path>
        </g>
			</g>
		</svg>
	